<svg width="505" height="375" viewBox="0 0 505 375" fill="none" xmlns="http://www.w3.org/2000/svg">
<g filter="url(#filter0_d_5_119)">
<rect x="90" y="74" width="325" height="195" rx="8" fill="white"/>
</g>
<path d="M131.56 231.746V230.78L136.474 223.976H138V230.64H139.4V231.746H138V234H136.74V231.746H131.56ZM136.796 225.306L133.03 230.64H136.796V225.306ZM140.673 228.834C140.673 227.229 140.934 225.978 141.457 225.082C141.979 224.177 142.894 223.724 144.201 223.724C145.498 223.724 146.408 224.177 146.931 225.082C147.453 225.978 147.715 227.229 147.715 228.834C147.715 230.467 147.453 231.737 146.931 232.642C146.408 233.547 145.498 234 144.201 234C142.894 234 141.979 233.547 141.457 232.642C140.934 231.737 140.673 230.467 140.673 228.834ZM146.455 228.834C146.455 228.022 146.399 227.336 146.287 226.776C146.184 226.207 145.965 225.749 145.629 225.404C145.302 225.059 144.826 224.886 144.201 224.886C143.566 224.886 143.081 225.059 142.745 225.404C142.418 225.749 142.199 226.207 142.087 226.776C141.984 227.336 141.933 228.022 141.933 228.834C141.933 229.674 141.984 230.379 142.087 230.948C142.199 231.517 142.418 231.975 142.745 232.32C143.081 232.665 143.566 232.838 144.201 232.838C144.826 232.838 145.302 232.665 145.629 232.32C145.965 231.975 146.184 231.517 146.287 230.948C146.399 230.379 146.455 229.674 146.455 228.834ZM152.93 229.114C152.93 228.162 153.145 227.308 153.574 226.552C154.003 225.787 154.587 225.189 155.324 224.76C156.071 224.331 156.897 224.116 157.802 224.116C158.866 224.116 159.795 224.373 160.588 224.886C161.381 225.399 161.96 226.127 162.324 227.07H160.798C160.527 226.482 160.135 226.029 159.622 225.712C159.118 225.395 158.511 225.236 157.802 225.236C157.121 225.236 156.509 225.395 155.968 225.712C155.427 226.029 155.002 226.482 154.694 227.07C154.386 227.649 154.232 228.33 154.232 229.114C154.232 229.889 154.386 230.57 154.694 231.158C155.002 231.737 155.427 232.185 155.968 232.502C156.509 232.819 157.121 232.978 157.802 232.978C158.511 232.978 159.118 232.824 159.622 232.516C160.135 232.199 160.527 231.746 160.798 231.158H162.324C161.96 232.091 161.381 232.815 160.588 233.328C159.795 233.832 158.866 234.084 157.802 234.084C156.897 234.084 156.071 233.874 155.324 233.454C154.587 233.025 154.003 232.432 153.574 231.676C153.145 230.92 152.93 230.066 152.93 229.114ZM165.495 223.64V234H164.221V223.64H165.495ZM167.19 230.136C167.19 229.352 167.349 228.666 167.666 228.078C167.983 227.481 168.417 227.019 168.968 226.692C169.528 226.365 170.149 226.202 170.83 226.202C171.502 226.202 172.085 226.347 172.58 226.636C173.075 226.925 173.443 227.289 173.686 227.728V226.328H174.974V234H173.686V232.572C173.434 233.02 173.056 233.393 172.552 233.692C172.057 233.981 171.479 234.126 170.816 234.126C170.135 234.126 169.519 233.958 168.968 233.622C168.417 233.286 167.983 232.815 167.666 232.208C167.349 231.601 167.19 230.911 167.19 230.136ZM173.686 230.15C173.686 229.571 173.569 229.067 173.336 228.638C173.103 228.209 172.785 227.882 172.384 227.658C171.992 227.425 171.558 227.308 171.082 227.308C170.606 227.308 170.172 227.42 169.78 227.644C169.388 227.868 169.075 228.195 168.842 228.624C168.609 229.053 168.492 229.557 168.492 230.136C168.492 230.724 168.609 231.237 168.842 231.676C169.075 232.105 169.388 232.437 169.78 232.67C170.172 232.894 170.606 233.006 171.082 233.006C171.558 233.006 171.992 232.894 172.384 232.67C172.785 232.437 173.103 232.105 173.336 231.676C173.569 231.237 173.686 230.729 173.686 230.15ZM179.843 234.126C179.255 234.126 178.727 234.028 178.261 233.832C177.794 233.627 177.425 233.347 177.155 232.992C176.884 232.628 176.735 232.213 176.707 231.746H178.023C178.06 232.129 178.237 232.441 178.555 232.684C178.881 232.927 179.306 233.048 179.829 233.048C180.314 233.048 180.697 232.941 180.977 232.726C181.257 232.511 181.397 232.241 181.397 231.914C181.397 231.578 181.247 231.331 180.949 231.172C180.65 231.004 180.188 230.841 179.563 230.682C178.993 230.533 178.527 230.383 178.163 230.234C177.808 230.075 177.5 229.847 177.239 229.548C176.987 229.24 176.861 228.839 176.861 228.344C176.861 227.952 176.977 227.593 177.211 227.266C177.444 226.939 177.775 226.683 178.205 226.496C178.634 226.3 179.124 226.202 179.675 226.202C180.524 226.202 181.21 226.417 181.733 226.846C182.255 227.275 182.535 227.863 182.573 228.61H181.299C181.271 228.209 181.107 227.887 180.809 227.644C180.519 227.401 180.127 227.28 179.633 227.28C179.175 227.28 178.811 227.378 178.541 227.574C178.27 227.77 178.135 228.027 178.135 228.344C178.135 228.596 178.214 228.806 178.373 228.974C178.541 229.133 178.746 229.263 178.989 229.366C179.241 229.459 179.586 229.567 180.025 229.688C180.575 229.837 181.023 229.987 181.369 230.136C181.714 230.276 182.008 230.491 182.251 230.78C182.503 231.069 182.633 231.447 182.643 231.914C182.643 232.334 182.526 232.712 182.293 233.048C182.059 233.384 181.728 233.65 181.299 233.846C180.879 234.033 180.393 234.126 179.843 234.126ZM187.157 234.126C186.569 234.126 186.042 234.028 185.575 233.832C185.109 233.627 184.74 233.347 184.469 232.992C184.199 232.628 184.049 232.213 184.021 231.746H185.337C185.375 232.129 185.552 232.441 185.869 232.684C186.196 232.927 186.621 233.048 187.143 233.048C187.629 233.048 188.011 232.941 188.291 232.726C188.571 232.511 188.711 232.241 188.711 231.914C188.711 231.578 188.562 231.331 188.263 231.172C187.965 231.004 187.503 230.841 186.877 230.682C186.308 230.533 185.841 230.383 185.477 230.234C185.123 230.075 184.815 229.847 184.553 229.548C184.301 229.24 184.175 228.839 184.175 228.344C184.175 227.952 184.292 227.593 184.525 227.266C184.759 226.939 185.09 226.683 185.519 226.496C185.949 226.3 186.439 226.202 186.989 226.202C187.839 226.202 188.525 226.417 189.047 226.846C189.57 227.275 189.85 227.863 189.887 228.61H188.613C188.585 228.209 188.422 227.887 188.123 227.644C187.834 227.401 187.442 227.28 186.947 227.28C186.49 227.28 186.126 227.378 185.855 227.574C185.585 227.77 185.449 228.027 185.449 228.344C185.449 228.596 185.529 228.806 185.687 228.974C185.855 229.133 186.061 229.263 186.303 229.366C186.555 229.459 186.901 229.567 187.339 229.688C187.89 229.837 188.338 229.987 188.683 230.136C189.029 230.276 189.323 230.491 189.565 230.78C189.817 231.069 189.948 231.447 189.957 231.914C189.957 232.334 189.841 232.712 189.607 233.048C189.374 233.384 189.043 233.65 188.613 233.846C188.193 234.033 187.708 234.126 187.157 234.126ZM198.756 229.87C198.756 230.113 198.742 230.369 198.714 230.64H192.582C192.628 231.396 192.885 231.989 193.352 232.418C193.828 232.838 194.402 233.048 195.074 233.048C195.624 233.048 196.082 232.922 196.446 232.67C196.819 232.409 197.08 232.063 197.23 231.634H198.602C198.396 232.371 197.986 232.973 197.37 233.44C196.754 233.897 195.988 234.126 195.074 234.126C194.346 234.126 193.692 233.963 193.114 233.636C192.544 233.309 192.096 232.847 191.77 232.25C191.443 231.643 191.28 230.943 191.28 230.15C191.28 229.357 191.438 228.661 191.756 228.064C192.073 227.467 192.516 227.009 193.086 226.692C193.664 226.365 194.327 226.202 195.074 226.202C195.802 226.202 196.446 226.361 197.006 226.678C197.566 226.995 197.995 227.434 198.294 227.994C198.602 228.545 198.756 229.17 198.756 229.87ZM197.44 229.604C197.44 229.119 197.332 228.703 197.118 228.358C196.903 228.003 196.609 227.737 196.236 227.56C195.872 227.373 195.466 227.28 195.018 227.28C194.374 227.28 193.823 227.485 193.366 227.896C192.918 228.307 192.661 228.876 192.596 229.604H197.44ZM203.153 234.126C202.565 234.126 202.038 234.028 201.571 233.832C201.105 233.627 200.736 233.347 200.465 232.992C200.195 232.628 200.045 232.213 200.017 231.746H201.333C201.371 232.129 201.548 232.441 201.865 232.684C202.192 232.927 202.617 233.048 203.139 233.048C203.625 233.048 204.007 232.941 204.287 232.726C204.567 232.511 204.707 232.241 204.707 231.914C204.707 231.578 204.558 231.331 204.259 231.172C203.961 231.004 203.499 230.841 202.873 230.682C202.304 230.533 201.837 230.383 201.473 230.234C201.119 230.075 200.811 229.847 200.549 229.548C200.297 229.24 200.171 228.839 200.171 228.344C200.171 227.952 200.288 227.593 200.521 227.266C200.755 226.939 201.086 226.683 201.515 226.496C201.945 226.3 202.435 226.202 202.985 226.202C203.835 226.202 204.521 226.417 205.043 226.846C205.566 227.275 205.846 227.863 205.883 228.61H204.609C204.581 228.209 204.418 227.887 204.119 227.644C203.83 227.401 203.438 227.28 202.943 227.28C202.486 227.28 202.122 227.378 201.851 227.574C201.581 227.77 201.445 228.027 201.445 228.344C201.445 228.596 201.525 228.806 201.683 228.974C201.851 229.133 202.057 229.263 202.299 229.366C202.551 229.459 202.897 229.567 203.335 229.688C203.886 229.837 204.334 229.987 204.679 230.136C205.025 230.276 205.319 230.491 205.561 230.78C205.813 231.069 205.944 231.447 205.953 231.914C205.953 232.334 205.837 232.712 205.603 233.048C205.37 233.384 205.039 233.65 204.609 233.846C204.189 234.033 203.704 234.126 203.153 234.126Z" fill="#9DA6A5"/>
<path d="M121 229C121 230.657 119.657 232 118 232C116.343 232 115 230.657 115 229C115 227.343 116.343 226 118 226C119.657 226 121 227.343 121 229Z" fill="#1EBFC1"/>
<path d="M223 229C223 230.657 221.657 232 220 232C218.343 232 217 230.657 217 229C217 227.343 218.343 226 220 226C221.657 226 223 227.343 223 229Z" fill="#1EBFC1"/>
<path d="M233.84 226.426C233.905 225.567 234.237 224.895 234.834 224.41C235.431 223.925 236.206 223.682 237.158 223.682C237.793 223.682 238.339 223.799 238.796 224.032C239.263 224.256 239.613 224.564 239.846 224.956C240.089 225.348 240.21 225.791 240.21 226.286C240.21 226.865 240.042 227.364 239.706 227.784C239.379 228.204 238.95 228.475 238.418 228.596V228.666C239.025 228.815 239.505 229.109 239.86 229.548C240.215 229.987 240.392 230.561 240.392 231.27C240.392 231.802 240.271 232.283 240.028 232.712C239.785 233.132 239.421 233.463 238.936 233.706C238.451 233.949 237.867 234.07 237.186 234.07C236.197 234.07 235.385 233.813 234.75 233.3C234.115 232.777 233.761 232.04 233.686 231.088H234.918C234.983 231.648 235.212 232.105 235.604 232.46C235.996 232.815 236.519 232.992 237.172 232.992C237.825 232.992 238.32 232.824 238.656 232.488C239.001 232.143 239.174 231.699 239.174 231.158C239.174 230.458 238.941 229.954 238.474 229.646C238.007 229.338 237.303 229.184 236.36 229.184H236.038V228.12H236.374C237.233 228.111 237.881 227.971 238.32 227.7C238.759 227.42 238.978 226.991 238.978 226.412C238.978 225.917 238.815 225.521 238.488 225.222C238.171 224.923 237.713 224.774 237.116 224.774C236.537 224.774 236.071 224.923 235.716 225.222C235.361 225.521 235.151 225.922 235.086 226.426H233.84ZM255.953 224.312V234H254.679V226.776L251.459 234H250.563L247.329 226.762V234H246.055V224.312H247.427L251.011 232.32L254.595 224.312H255.953ZM261.459 234.126C260.74 234.126 260.087 233.963 259.499 233.636C258.92 233.309 258.463 232.847 258.127 232.25C257.8 231.643 257.637 230.943 257.637 230.15C257.637 229.366 257.805 228.675 258.141 228.078C258.486 227.471 258.953 227.009 259.541 226.692C260.129 226.365 260.787 226.202 261.515 226.202C262.243 226.202 262.901 226.365 263.489 226.692C264.077 227.009 264.539 227.467 264.875 228.064C265.22 228.661 265.393 229.357 265.393 230.15C265.393 230.943 265.216 231.643 264.861 232.25C264.516 232.847 264.044 233.309 263.447 233.636C262.85 233.963 262.187 234.126 261.459 234.126ZM261.459 233.006C261.916 233.006 262.346 232.899 262.747 232.684C263.148 232.469 263.47 232.147 263.713 231.718C263.965 231.289 264.091 230.766 264.091 230.15C264.091 229.534 263.97 229.011 263.727 228.582C263.484 228.153 263.167 227.835 262.775 227.63C262.383 227.415 261.958 227.308 261.501 227.308C261.034 227.308 260.605 227.415 260.213 227.63C259.83 227.835 259.522 228.153 259.289 228.582C259.056 229.011 258.939 229.534 258.939 230.15C258.939 230.775 259.051 231.303 259.275 231.732C259.508 232.161 259.816 232.483 260.199 232.698C260.582 232.903 261.002 233.006 261.459 233.006ZM270.806 226.188C271.74 226.188 272.496 226.473 273.074 227.042C273.653 227.602 273.942 228.414 273.942 229.478V234H272.682V229.66C272.682 228.895 272.491 228.311 272.108 227.91C271.726 227.499 271.203 227.294 270.54 227.294C269.868 227.294 269.332 227.504 268.93 227.924C268.538 228.344 268.342 228.955 268.342 229.758V234H267.068V226.328H268.342V227.42C268.594 227.028 268.935 226.725 269.364 226.51C269.803 226.295 270.284 226.188 270.806 226.188ZM277.577 227.378V231.9C277.577 232.273 277.657 232.539 277.815 232.698C277.974 232.847 278.249 232.922 278.641 232.922H279.579V234H278.431C277.722 234 277.19 233.837 276.835 233.51C276.481 233.183 276.303 232.647 276.303 231.9V227.378H275.309V226.328H276.303V224.396H277.577V226.328H279.579V227.378H277.577ZM284.931 226.188C285.51 226.188 286.032 226.314 286.499 226.566C286.966 226.809 287.33 227.177 287.591 227.672C287.862 228.167 287.997 228.769 287.997 229.478V234H286.737V229.66C286.737 228.895 286.546 228.311 286.163 227.91C285.78 227.499 285.258 227.294 284.595 227.294C283.923 227.294 283.386 227.504 282.985 227.924C282.593 228.344 282.397 228.955 282.397 229.758V234H281.123V223.64H282.397V227.42C282.649 227.028 282.994 226.725 283.433 226.51C283.881 226.295 284.38 226.188 284.931 226.188ZM292.794 234.126C292.206 234.126 291.679 234.028 291.212 233.832C290.745 233.627 290.377 233.347 290.106 232.992C289.835 232.628 289.686 232.213 289.658 231.746H290.974C291.011 232.129 291.189 232.441 291.506 232.684C291.833 232.927 292.257 233.048 292.78 233.048C293.265 233.048 293.648 232.941 293.928 232.726C294.208 232.511 294.348 232.241 294.348 231.914C294.348 231.578 294.199 231.331 293.9 231.172C293.601 231.004 293.139 230.841 292.514 230.682C291.945 230.533 291.478 230.383 291.114 230.234C290.759 230.075 290.451 229.847 290.19 229.548C289.938 229.24 289.812 228.839 289.812 228.344C289.812 227.952 289.929 227.593 290.162 227.266C290.395 226.939 290.727 226.683 291.156 226.496C291.585 226.3 292.075 226.202 292.626 226.202C293.475 226.202 294.161 226.417 294.684 226.846C295.207 227.275 295.487 227.863 295.524 228.61H294.25C294.222 228.209 294.059 227.887 293.76 227.644C293.471 227.401 293.079 227.28 292.584 227.28C292.127 227.28 291.763 227.378 291.492 227.574C291.221 227.77 291.086 228.027 291.086 228.344C291.086 228.596 291.165 228.806 291.324 228.974C291.492 229.133 291.697 229.263 291.94 229.366C292.192 229.459 292.537 229.567 292.976 229.688C293.527 229.837 293.975 229.987 294.32 230.136C294.665 230.276 294.959 230.491 295.202 230.78C295.454 231.069 295.585 231.447 295.594 231.914C295.594 232.334 295.477 232.712 295.244 233.048C295.011 233.384 294.679 233.65 294.25 233.846C293.83 234.033 293.345 234.126 292.794 234.126Z" fill="#9DA6A5"/>
<path d="M128.342 185.242L125.514 195H124.086L121.818 187.146L119.466 195L118.052 195.014L115.322 185.242H116.68L118.808 193.516L121.16 185.242H122.588L124.828 193.488L126.97 185.242H128.342ZM136.736 190.87C136.736 191.113 136.722 191.369 136.694 191.64H130.562C130.609 192.396 130.866 192.989 131.332 193.418C131.808 193.838 132.382 194.048 133.054 194.048C133.605 194.048 134.062 193.922 134.426 193.67C134.8 193.409 135.061 193.063 135.21 192.634H136.582C136.377 193.371 135.966 193.973 135.35 194.44C134.734 194.897 133.969 195.126 133.054 195.126C132.326 195.126 131.673 194.963 131.094 194.636C130.525 194.309 130.077 193.847 129.75 193.25C129.424 192.643 129.26 191.943 129.26 191.15C129.26 190.357 129.419 189.661 129.736 189.064C130.054 188.467 130.497 188.009 131.066 187.692C131.645 187.365 132.308 187.202 133.054 187.202C133.782 187.202 134.426 187.361 134.986 187.678C135.546 187.995 135.976 188.434 136.274 188.994C136.582 189.545 136.736 190.17 136.736 190.87ZM135.42 190.604C135.42 190.119 135.313 189.703 135.098 189.358C134.884 189.003 134.59 188.737 134.216 188.56C133.852 188.373 133.446 188.28 132.998 188.28C132.354 188.28 131.804 188.485 131.346 188.896C130.898 189.307 130.642 189.876 130.576 190.604H135.42ZM139.692 188.756C139.953 188.299 140.336 187.925 140.84 187.636C141.344 187.347 141.918 187.202 142.562 187.202C143.253 187.202 143.873 187.365 144.424 187.692C144.975 188.019 145.409 188.481 145.726 189.078C146.043 189.666 146.202 190.352 146.202 191.136C146.202 191.911 146.043 192.601 145.726 193.208C145.409 193.815 144.97 194.286 144.41 194.622C143.859 194.958 143.243 195.126 142.562 195.126C141.899 195.126 141.316 194.981 140.812 194.692C140.317 194.403 139.944 194.034 139.692 193.586V195H138.418V184.64H139.692V188.756ZM144.9 191.136C144.9 190.557 144.783 190.053 144.55 189.624C144.317 189.195 143.999 188.868 143.598 188.644C143.206 188.42 142.772 188.308 142.296 188.308C141.829 188.308 141.395 188.425 140.994 188.658C140.602 188.882 140.285 189.213 140.042 189.652C139.809 190.081 139.692 190.581 139.692 191.15C139.692 191.729 139.809 192.237 140.042 192.676C140.285 193.105 140.602 193.437 140.994 193.67C141.395 193.894 141.829 194.006 142.296 194.006C142.772 194.006 143.206 193.894 143.598 193.67C143.999 193.437 144.317 193.105 144.55 192.676C144.783 192.237 144.9 191.724 144.9 191.136ZM151.135 191.136C151.135 190.352 151.294 189.666 151.611 189.078C151.929 188.481 152.363 188.019 152.913 187.692C153.473 187.365 154.099 187.202 154.789 187.202C155.387 187.202 155.942 187.342 156.455 187.622C156.969 187.893 157.361 188.252 157.631 188.7V184.64H158.919V195H157.631V193.558C157.379 194.015 157.006 194.393 156.511 194.692C156.017 194.981 155.438 195.126 154.775 195.126C154.094 195.126 153.473 194.958 152.913 194.622C152.363 194.286 151.929 193.815 151.611 193.208C151.294 192.601 151.135 191.911 151.135 191.136ZM157.631 191.15C157.631 190.571 157.515 190.067 157.281 189.638C157.048 189.209 156.731 188.882 156.329 188.658C155.937 188.425 155.503 188.308 155.027 188.308C154.551 188.308 154.117 188.42 153.725 188.644C153.333 188.868 153.021 189.195 152.787 189.624C152.554 190.053 152.437 190.557 152.437 191.136C152.437 191.724 152.554 192.237 152.787 192.676C153.021 193.105 153.333 193.437 153.725 193.67C154.117 193.894 154.551 194.006 155.027 194.006C155.503 194.006 155.937 193.894 156.329 193.67C156.731 193.437 157.048 193.105 157.281 192.676C157.515 192.237 157.631 191.729 157.631 191.15ZM168.072 190.87C168.072 191.113 168.058 191.369 168.03 191.64H161.898C161.945 192.396 162.201 192.989 162.668 193.418C163.144 193.838 163.718 194.048 164.39 194.048C164.941 194.048 165.398 193.922 165.762 193.67C166.135 193.409 166.397 193.063 166.546 192.634H167.918C167.713 193.371 167.302 193.973 166.686 194.44C166.07 194.897 165.305 195.126 164.39 195.126C163.662 195.126 163.009 194.963 162.43 194.636C161.861 194.309 161.413 193.847 161.086 193.25C160.759 192.643 160.596 191.943 160.596 191.15C160.596 190.357 160.755 189.661 161.072 189.064C161.389 188.467 161.833 188.009 162.402 187.692C162.981 187.365 163.643 187.202 164.39 187.202C165.118 187.202 165.762 187.361 166.322 187.678C166.882 187.995 167.311 188.434 167.61 188.994C167.918 189.545 168.072 190.17 168.072 190.87ZM166.756 190.604C166.756 190.119 166.649 189.703 166.434 189.358C166.219 189.003 165.925 188.737 165.552 188.56C165.188 188.373 164.782 188.28 164.334 188.28C163.69 188.28 163.139 188.485 162.682 188.896C162.234 189.307 161.977 189.876 161.912 190.604H166.756ZM172.47 195.126C171.882 195.126 171.354 195.028 170.888 194.832C170.421 194.627 170.052 194.347 169.782 193.992C169.511 193.628 169.362 193.213 169.334 192.746H170.65C170.687 193.129 170.864 193.441 171.182 193.684C171.508 193.927 171.933 194.048 172.456 194.048C172.941 194.048 173.324 193.941 173.604 193.726C173.884 193.511 174.024 193.241 174.024 192.914C174.024 192.578 173.874 192.331 173.576 192.172C173.277 192.004 172.815 191.841 172.19 191.682C171.62 191.533 171.154 191.383 170.79 191.234C170.435 191.075 170.127 190.847 169.866 190.548C169.614 190.24 169.488 189.839 169.488 189.344C169.488 188.952 169.604 188.593 169.838 188.266C170.071 187.939 170.402 187.683 170.832 187.496C171.261 187.3 171.751 187.202 172.302 187.202C173.151 187.202 173.837 187.417 174.36 187.846C174.882 188.275 175.162 188.863 175.2 189.61H173.926C173.898 189.209 173.734 188.887 173.436 188.644C173.146 188.401 172.754 188.28 172.26 188.28C171.802 188.28 171.438 188.378 171.168 188.574C170.897 188.77 170.762 189.027 170.762 189.344C170.762 189.596 170.841 189.806 171 189.974C171.168 190.133 171.373 190.263 171.616 190.366C171.868 190.459 172.213 190.567 172.652 190.688C173.202 190.837 173.65 190.987 173.996 191.136C174.341 191.276 174.635 191.491 174.878 191.78C175.13 192.069 175.26 192.447 175.27 192.914C175.27 193.334 175.153 193.712 174.92 194.048C174.686 194.384 174.355 194.65 173.926 194.846C173.506 195.033 173.02 195.126 172.47 195.126ZM177.726 186.082C177.484 186.082 177.278 185.998 177.11 185.83C176.942 185.662 176.858 185.457 176.858 185.214C176.858 184.971 176.942 184.766 177.11 184.598C177.278 184.43 177.484 184.346 177.726 184.346C177.96 184.346 178.156 184.43 178.314 184.598C178.482 184.766 178.566 184.971 178.566 185.214C178.566 185.457 178.482 185.662 178.314 185.83C178.156 185.998 177.96 186.082 177.726 186.082ZM178.342 187.328V195H177.068V187.328H178.342ZM183.678 187.202C184.34 187.202 184.919 187.347 185.414 187.636C185.918 187.925 186.291 188.289 186.534 188.728V187.328H187.822V195.168C187.822 195.868 187.672 196.489 187.374 197.03C187.075 197.581 186.646 198.01 186.086 198.318C185.535 198.626 184.891 198.78 184.154 198.78C183.146 198.78 182.306 198.542 181.634 198.066C180.962 197.59 180.565 196.941 180.444 196.12H181.704C181.844 196.587 182.133 196.96 182.572 197.24C183.01 197.529 183.538 197.674 184.154 197.674C184.854 197.674 185.423 197.455 185.862 197.016C186.31 196.577 186.534 195.961 186.534 195.168V193.558C186.282 194.006 185.908 194.379 185.414 194.678C184.919 194.977 184.34 195.126 183.678 195.126C182.996 195.126 182.376 194.958 181.816 194.622C181.265 194.286 180.831 193.815 180.514 193.208C180.196 192.601 180.038 191.911 180.038 191.136C180.038 190.352 180.196 189.666 180.514 189.078C180.831 188.481 181.265 188.019 181.816 187.692C182.376 187.365 182.996 187.202 183.678 187.202ZM186.534 191.15C186.534 190.571 186.417 190.067 186.184 189.638C185.95 189.209 185.633 188.882 185.232 188.658C184.84 188.425 184.406 188.308 183.93 188.308C183.454 188.308 183.02 188.42 182.628 188.644C182.236 188.868 181.923 189.195 181.69 189.624C181.456 190.053 181.34 190.557 181.34 191.136C181.34 191.724 181.456 192.237 181.69 192.676C181.923 193.105 182.236 193.437 182.628 193.67C183.02 193.894 183.454 194.006 183.93 194.006C184.406 194.006 184.84 193.894 185.232 193.67C185.633 193.437 185.95 193.105 186.184 192.676C186.417 192.237 186.534 191.729 186.534 191.15ZM193.712 187.188C194.646 187.188 195.402 187.473 195.98 188.042C196.559 188.602 196.848 189.414 196.848 190.478V195H195.588V190.66C195.588 189.895 195.397 189.311 195.014 188.91C194.632 188.499 194.109 188.294 193.446 188.294C192.774 188.294 192.238 188.504 191.836 188.924C191.444 189.344 191.248 189.955 191.248 190.758V195H189.974V187.328H191.248V188.42C191.5 188.028 191.841 187.725 192.27 187.51C192.709 187.295 193.19 187.188 193.712 187.188ZM203.936 188.756C204.197 188.299 204.58 187.925 205.084 187.636C205.588 187.347 206.162 187.202 206.806 187.202C207.497 187.202 208.117 187.365 208.668 187.692C209.219 188.019 209.653 188.481 209.97 189.078C210.287 189.666 210.446 190.352 210.446 191.136C210.446 191.911 210.287 192.601 209.97 193.208C209.653 193.815 209.214 194.286 208.654 194.622C208.103 194.958 207.487 195.126 206.806 195.126C206.143 195.126 205.56 194.981 205.056 194.692C204.561 194.403 204.188 194.034 203.936 193.586V195H202.662V184.64H203.936V188.756ZM209.144 191.136C209.144 190.557 209.027 190.053 208.794 189.624C208.561 189.195 208.243 188.868 207.842 188.644C207.45 188.42 207.016 188.308 206.54 188.308C206.073 188.308 205.639 188.425 205.238 188.658C204.846 188.882 204.529 189.213 204.286 189.652C204.053 190.081 203.936 190.581 203.936 191.15C203.936 191.729 204.053 192.237 204.286 192.676C204.529 193.105 204.846 193.437 205.238 193.67C205.639 193.894 206.073 194.006 206.54 194.006C207.016 194.006 207.45 193.894 207.842 193.67C208.243 193.437 208.561 193.105 208.794 192.676C209.027 192.237 209.144 191.724 209.144 191.136ZM211.647 191.136C211.647 190.352 211.806 189.666 212.123 189.078C212.44 188.481 212.874 188.019 213.425 187.692C213.985 187.365 214.606 187.202 215.287 187.202C215.959 187.202 216.542 187.347 217.037 187.636C217.532 187.925 217.9 188.289 218.143 188.728V187.328H219.431V195H218.143V193.572C217.891 194.02 217.513 194.393 217.009 194.692C216.514 194.981 215.936 195.126 215.273 195.126C214.592 195.126 213.976 194.958 213.425 194.622C212.874 194.286 212.44 193.815 212.123 193.208C211.806 192.601 211.647 191.911 211.647 191.136ZM218.143 191.15C218.143 190.571 218.026 190.067 217.793 189.638C217.56 189.209 217.242 188.882 216.841 188.658C216.449 188.425 216.015 188.308 215.539 188.308C215.063 188.308 214.629 188.42 214.237 188.644C213.845 188.868 213.532 189.195 213.299 189.624C213.066 190.053 212.949 190.557 212.949 191.136C212.949 191.724 213.066 192.237 213.299 192.676C213.532 193.105 213.845 193.437 214.237 193.67C214.629 193.894 215.063 194.006 215.539 194.006C216.015 194.006 216.449 193.894 216.841 193.67C217.242 193.437 217.56 193.105 217.793 192.676C218.026 192.237 218.143 191.729 218.143 191.15ZM224.3 195.126C223.712 195.126 223.185 195.028 222.718 194.832C222.251 194.627 221.883 194.347 221.612 193.992C221.341 193.628 221.192 193.213 221.164 192.746H222.48C222.517 193.129 222.695 193.441 223.012 193.684C223.339 193.927 223.763 194.048 224.286 194.048C224.771 194.048 225.154 193.941 225.434 193.726C225.714 193.511 225.854 193.241 225.854 192.914C225.854 192.578 225.705 192.331 225.406 192.172C225.107 192.004 224.645 191.841 224.02 191.682C223.451 191.533 222.984 191.383 222.62 191.234C222.265 191.075 221.957 190.847 221.696 190.548C221.444 190.24 221.318 189.839 221.318 189.344C221.318 188.952 221.435 188.593 221.668 188.266C221.901 187.939 222.233 187.683 222.662 187.496C223.091 187.3 223.581 187.202 224.132 187.202C224.981 187.202 225.667 187.417 226.19 187.846C226.713 188.275 226.993 188.863 227.03 189.61H225.756C225.728 189.209 225.565 188.887 225.266 188.644C224.977 188.401 224.585 188.28 224.09 188.28C223.633 188.28 223.269 188.378 222.998 188.574C222.727 188.77 222.592 189.027 222.592 189.344C222.592 189.596 222.671 189.806 222.83 189.974C222.998 190.133 223.203 190.263 223.446 190.366C223.698 190.459 224.043 190.567 224.482 190.688C225.033 190.837 225.481 190.987 225.826 191.136C226.171 191.276 226.465 191.491 226.708 191.78C226.96 192.069 227.091 192.447 227.1 192.914C227.1 193.334 226.983 193.712 226.75 194.048C226.517 194.384 226.185 194.65 225.756 194.846C225.336 195.033 224.851 195.126 224.3 195.126ZM229.556 186.082C229.314 186.082 229.108 185.998 228.94 185.83C228.772 185.662 228.688 185.457 228.688 185.214C228.688 184.971 228.772 184.766 228.94 184.598C229.108 184.43 229.314 184.346 229.556 184.346C229.79 184.346 229.986 184.43 230.144 184.598C230.312 184.766 230.396 184.971 230.396 185.214C230.396 185.457 230.312 185.662 230.144 185.83C229.986 185.998 229.79 186.082 229.556 186.082ZM230.172 187.328V195H228.898V187.328H230.172ZM231.868 191.15C231.868 190.357 232.026 189.666 232.344 189.078C232.661 188.481 233.1 188.019 233.66 187.692C234.229 187.365 234.878 187.202 235.606 187.202C236.548 187.202 237.323 187.431 237.93 187.888C238.546 188.345 238.952 188.98 239.148 189.792H237.776C237.645 189.325 237.388 188.957 237.006 188.686C236.632 188.415 236.166 188.28 235.606 188.28C234.878 188.28 234.29 188.532 233.842 189.036C233.394 189.531 233.17 190.235 233.17 191.15C233.17 192.074 233.394 192.788 233.842 193.292C234.29 193.796 234.878 194.048 235.606 194.048C236.166 194.048 236.632 193.917 237.006 193.656C237.379 193.395 237.636 193.021 237.776 192.536H239.148C238.942 193.32 238.532 193.95 237.916 194.426C237.3 194.893 236.53 195.126 235.606 195.126C234.878 195.126 234.229 194.963 233.66 194.636C233.1 194.309 232.661 193.847 232.344 193.25C232.026 192.653 231.868 191.953 231.868 191.15ZM246.134 188.378V192.9C246.134 193.273 246.213 193.539 246.372 193.698C246.531 193.847 246.806 193.922 247.198 193.922H248.136V195H246.988C246.279 195 245.747 194.837 245.392 194.51C245.037 194.183 244.86 193.647 244.86 192.9V188.378H243.866V187.328H244.86V185.396H246.134V187.328H248.136V188.378H246.134ZM253.026 195.126C252.307 195.126 251.654 194.963 251.066 194.636C250.487 194.309 250.03 193.847 249.694 193.25C249.367 192.643 249.204 191.943 249.204 191.15C249.204 190.366 249.372 189.675 249.708 189.078C250.053 188.471 250.52 188.009 251.108 187.692C251.696 187.365 252.354 187.202 253.082 187.202C253.81 187.202 254.468 187.365 255.056 187.692C255.644 188.009 256.106 188.467 256.442 189.064C256.787 189.661 256.96 190.357 256.96 191.15C256.96 191.943 256.782 192.643 256.428 193.25C256.082 193.847 255.611 194.309 255.014 194.636C254.416 194.963 253.754 195.126 253.026 195.126ZM253.026 194.006C253.483 194.006 253.912 193.899 254.314 193.684C254.715 193.469 255.037 193.147 255.28 192.718C255.532 192.289 255.658 191.766 255.658 191.15C255.658 190.534 255.536 190.011 255.294 189.582C255.051 189.153 254.734 188.835 254.342 188.63C253.95 188.415 253.525 188.308 253.068 188.308C252.601 188.308 252.172 188.415 251.78 188.63C251.397 188.835 251.089 189.153 250.856 189.582C250.622 190.011 250.506 190.534 250.506 191.15C250.506 191.775 250.618 192.303 250.842 192.732C251.075 193.161 251.383 193.483 251.766 193.698C252.148 193.903 252.568 194.006 253.026 194.006ZM266.175 187.188C266.754 187.188 267.276 187.314 267.743 187.566C268.21 187.809 268.574 188.177 268.835 188.672C269.106 189.167 269.241 189.769 269.241 190.478V195H267.981V190.66C267.981 189.895 267.79 189.311 267.407 188.91C267.024 188.499 266.502 188.294 265.839 188.294C265.167 188.294 264.63 188.504 264.229 188.924C263.837 189.344 263.641 189.955 263.641 190.758V195H262.367V184.64H263.641V188.42C263.893 188.028 264.238 187.725 264.677 187.51C265.125 187.295 265.624 187.188 266.175 187.188ZM271.98 186.082C271.737 186.082 271.532 185.998 271.364 185.83C271.196 185.662 271.112 185.457 271.112 185.214C271.112 184.971 271.196 184.766 271.364 184.598C271.532 184.43 271.737 184.346 271.98 184.346C272.213 184.346 272.409 184.43 272.568 184.598C272.736 184.766 272.82 184.971 272.82 185.214C272.82 185.457 272.736 185.662 272.568 185.83C272.409 185.998 272.213 186.082 271.98 186.082ZM272.596 187.328V195H271.322V187.328H272.596ZM277.931 187.202C278.594 187.202 279.173 187.347 279.667 187.636C280.171 187.925 280.545 188.289 280.787 188.728V187.328H282.075V195.168C282.075 195.868 281.926 196.489 281.627 197.03C281.329 197.581 280.899 198.01 280.339 198.318C279.789 198.626 279.145 198.78 278.407 198.78C277.399 198.78 276.559 198.542 275.887 198.066C275.215 197.59 274.819 196.941 274.697 196.12H275.957C276.097 196.587 276.387 196.96 276.825 197.24C277.264 197.529 277.791 197.674 278.407 197.674C279.107 197.674 279.677 197.455 280.115 197.016C280.563 196.577 280.787 195.961 280.787 195.168V193.558C280.535 194.006 280.162 194.379 279.667 194.678C279.173 194.977 278.594 195.126 277.931 195.126C277.25 195.126 276.629 194.958 276.069 194.622C275.519 194.286 275.085 193.815 274.767 193.208C274.45 192.601 274.291 191.911 274.291 191.136C274.291 190.352 274.45 189.666 274.767 189.078C275.085 188.481 275.519 188.019 276.069 187.692C276.629 187.365 277.25 187.202 277.931 187.202ZM280.787 191.15C280.787 190.571 280.671 190.067 280.437 189.638C280.204 189.209 279.887 188.882 279.485 188.658C279.093 188.425 278.659 188.308 278.183 188.308C277.707 188.308 277.273 188.42 276.881 188.644C276.489 188.868 276.177 189.195 275.943 189.624C275.71 190.053 275.593 190.557 275.593 191.136C275.593 191.724 275.71 192.237 275.943 192.676C276.177 193.105 276.489 193.437 276.881 193.67C277.273 193.894 277.707 194.006 278.183 194.006C278.659 194.006 279.093 193.894 279.485 193.67C279.887 193.437 280.204 193.105 280.437 192.676C280.671 192.237 280.787 191.729 280.787 191.15ZM291.228 190.87C291.228 191.113 291.214 191.369 291.186 191.64H285.054C285.101 192.396 285.358 192.989 285.824 193.418C286.3 193.838 286.874 194.048 287.546 194.048C288.097 194.048 288.554 193.922 288.918 193.67C289.292 193.409 289.553 193.063 289.702 192.634H291.074C290.869 193.371 290.458 193.973 289.842 194.44C289.226 194.897 288.461 195.126 287.546 195.126C286.818 195.126 286.165 194.963 285.586 194.636C285.017 194.309 284.569 193.847 284.242 193.25C283.916 192.643 283.752 191.943 283.752 191.15C283.752 190.357 283.911 189.661 284.228 189.064C284.546 188.467 284.989 188.009 285.558 187.692C286.137 187.365 286.8 187.202 287.546 187.202C288.274 187.202 288.918 187.361 289.478 187.678C290.038 187.995 290.468 188.434 290.766 188.994C291.074 189.545 291.228 190.17 291.228 190.87ZM289.912 190.604C289.912 190.119 289.805 189.703 289.59 189.358C289.376 189.003 289.082 188.737 288.708 188.56C288.344 188.373 287.938 188.28 287.49 188.28C286.846 188.28 286.296 188.485 285.838 188.896C285.39 189.307 285.134 189.876 285.068 190.604H289.912ZM294.184 188.574C294.408 188.135 294.725 187.795 295.136 187.552C295.556 187.309 296.065 187.188 296.662 187.188V188.504H296.326C294.898 188.504 294.184 189.279 294.184 190.828V195H292.91V187.328H294.184V188.574ZM303.139 184.64V195H301.865V184.64H303.139ZM312.31 190.87C312.31 191.113 312.296 191.369 312.268 191.64H306.136C306.183 192.396 306.44 192.989 306.906 193.418C307.382 193.838 307.956 194.048 308.628 194.048C309.179 194.048 309.636 193.922 310 193.67C310.374 193.409 310.635 193.063 310.784 192.634H312.156C311.951 193.371 311.54 193.973 310.924 194.44C310.308 194.897 309.543 195.126 308.628 195.126C307.9 195.126 307.247 194.963 306.668 194.636C306.099 194.309 305.651 193.847 305.324 193.25C304.998 192.643 304.834 191.943 304.834 191.15C304.834 190.357 304.993 189.661 305.31 189.064C305.628 188.467 306.071 188.009 306.64 187.692C307.219 187.365 307.882 187.202 308.628 187.202C309.356 187.202 310 187.361 310.56 187.678C311.12 187.995 311.55 188.434 311.848 188.994C312.156 189.545 312.31 190.17 312.31 190.87ZM310.994 190.604C310.994 190.119 310.887 189.703 310.672 189.358C310.458 189.003 310.164 188.737 309.79 188.56C309.426 188.373 309.02 188.28 308.572 188.28C307.928 188.28 307.378 188.485 306.92 188.896C306.472 189.307 306.216 189.876 306.15 190.604H310.994ZM316.848 193.824L319.228 187.328H320.586L317.576 195H316.092L313.082 187.328H314.454L316.848 193.824ZM328.84 190.87C328.84 191.113 328.826 191.369 328.798 191.64H322.666C322.712 192.396 322.969 192.989 323.436 193.418C323.912 193.838 324.486 194.048 325.158 194.048C325.708 194.048 326.166 193.922 326.53 193.67C326.903 193.409 327.164 193.063 327.314 192.634H328.686C328.48 193.371 328.07 193.973 327.454 194.44C326.838 194.897 326.072 195.126 325.158 195.126C324.43 195.126 323.776 194.963 323.198 194.636C322.628 194.309 322.18 193.847 321.854 193.25C321.527 192.643 321.364 191.943 321.364 191.15C321.364 190.357 321.522 189.661 321.84 189.064C322.157 188.467 322.6 188.009 323.17 187.692C323.748 187.365 324.411 187.202 325.158 187.202C325.886 187.202 326.53 187.361 327.09 187.678C327.65 187.995 328.079 188.434 328.378 188.994C328.686 189.545 328.84 190.17 328.84 190.87ZM327.524 190.604C327.524 190.119 327.416 189.703 327.202 189.358C326.987 189.003 326.693 188.737 326.32 188.56C325.956 188.373 325.55 188.28 325.102 188.28C324.458 188.28 323.907 188.485 323.45 188.896C323.002 189.307 322.745 189.876 322.68 190.604H327.524ZM331.795 184.64V195H330.521V184.64H331.795Z" fill="#9DA6A5"/>
<path d="M122.536 153.848V155.032H117.688V158.792H121.624V159.976H117.688V165H116.232V153.848H122.536ZM132.295 160.28C132.295 160.557 132.279 160.851 132.247 161.16H125.239C125.292 162.024 125.585 162.701 126.119 163.192C126.663 163.672 127.319 163.912 128.087 163.912C128.716 163.912 129.239 163.768 129.655 163.48C130.081 163.181 130.38 162.787 130.551 162.296H132.119C131.884 163.139 131.415 163.827 130.711 164.36C130.007 164.883 129.132 165.144 128.087 165.144C127.255 165.144 126.508 164.957 125.847 164.584C125.196 164.211 124.684 163.683 124.311 163C123.937 162.307 123.751 161.507 123.751 160.6C123.751 159.693 123.932 158.899 124.295 158.216C124.657 157.533 125.164 157.011 125.815 156.648C126.476 156.275 127.233 156.088 128.087 156.088C128.919 156.088 129.655 156.269 130.295 156.632C130.935 156.995 131.425 157.496 131.767 158.136C132.119 158.765 132.295 159.48 132.295 160.28ZM130.791 159.976C130.791 159.421 130.668 158.947 130.423 158.552C130.177 158.147 129.841 157.843 129.415 157.64C128.999 157.427 128.535 157.32 128.023 157.32C127.287 157.32 126.657 157.555 126.135 158.024C125.623 158.493 125.329 159.144 125.255 159.976H130.791ZM142.216 160.28C142.216 160.557 142.2 160.851 142.168 161.16H135.16C135.214 162.024 135.507 162.701 136.04 163.192C136.584 163.672 137.24 163.912 138.008 163.912C138.638 163.912 139.16 163.768 139.576 163.48C140.003 163.181 140.302 162.787 140.472 162.296H142.04C141.806 163.139 141.336 163.827 140.632 164.36C139.928 164.883 139.054 165.144 138.008 165.144C137.176 165.144 136.43 164.957 135.768 164.584C135.118 164.211 134.606 163.683 134.232 163C133.859 162.307 133.672 161.507 133.672 160.6C133.672 159.693 133.854 158.899 134.216 158.216C134.579 157.533 135.086 157.011 135.736 156.648C136.398 156.275 137.155 156.088 138.008 156.088C138.84 156.088 139.576 156.269 140.216 156.632C140.856 156.995 141.347 157.496 141.688 158.136C142.04 158.765 142.216 159.48 142.216 160.28ZM140.712 159.976C140.712 159.421 140.59 158.947 140.344 158.552C140.099 158.147 139.763 157.843 139.336 157.64C138.92 157.427 138.456 157.32 137.944 157.32C137.208 157.32 136.579 157.555 136.056 158.024C135.544 158.493 135.251 159.144 135.176 159.976H140.712Z" fill="#767E7E"/>
<path d="M160.218 160.512C160.218 161.319 160.005 162.067 159.58 162.756C159.169 163.431 158.553 163.988 157.732 164.428C156.925 164.853 155.965 165.088 154.85 165.132V166.914H153.442V165.11C151.887 164.978 150.633 164.516 149.68 163.724C148.727 162.917 148.221 161.825 148.162 160.446H152.166C152.254 161.326 152.679 161.891 153.442 162.14V158.664C152.298 158.371 151.381 158.085 150.692 157.806C150.017 157.527 149.423 157.08 148.91 156.464C148.397 155.848 148.14 155.005 148.14 153.934C148.14 152.599 148.631 151.529 149.614 150.722C150.611 149.915 151.887 149.461 153.442 149.358V147.576H154.85V149.358C156.39 149.475 157.607 149.923 158.502 150.7C159.397 151.477 159.895 152.555 159.998 153.934H155.972C155.884 153.142 155.51 152.629 154.85 152.394V155.804C156.067 156.141 157.006 156.442 157.666 156.706C158.326 156.97 158.913 157.41 159.426 158.026C159.954 158.627 160.218 159.456 160.218 160.512ZM152.122 153.758C152.122 154.125 152.232 154.433 152.452 154.682C152.687 154.931 153.017 155.151 153.442 155.342V152.284C153.031 152.357 152.709 152.519 152.474 152.768C152.239 153.003 152.122 153.333 152.122 153.758ZM154.85 162.206C155.29 162.133 155.635 161.957 155.884 161.678C156.148 161.399 156.28 161.055 156.28 160.644C156.28 160.263 156.155 159.955 155.906 159.72C155.671 159.471 155.319 159.258 154.85 159.082V162.206ZM162.51 161.986C163.009 161.59 163.236 161.407 163.192 161.436C164.63 160.248 165.759 159.273 166.58 158.51C167.416 157.747 168.12 156.948 168.692 156.112C169.264 155.276 169.55 154.462 169.55 153.67C169.55 153.069 169.411 152.599 169.132 152.262C168.854 151.925 168.436 151.756 167.878 151.756C167.321 151.756 166.881 151.969 166.558 152.394C166.25 152.805 166.096 153.391 166.096 154.154H162.466C162.496 152.907 162.76 151.866 163.258 151.03C163.772 150.194 164.439 149.578 165.26 149.182C166.096 148.786 167.02 148.588 168.032 148.588C169.778 148.588 171.09 149.035 171.97 149.93C172.865 150.825 173.312 151.991 173.312 153.428C173.312 154.997 172.777 156.457 171.706 157.806C170.636 159.141 169.272 160.446 167.614 161.722H173.554V164.78H162.51V161.986ZM175.211 156.75C175.211 154.227 175.695 152.24 176.663 150.788C177.645 149.336 179.222 148.61 181.393 148.61C183.563 148.61 185.133 149.336 186.101 150.788C187.083 152.24 187.575 154.227 187.575 156.75C187.575 159.302 187.083 161.304 186.101 162.756C185.133 164.208 183.563 164.934 181.393 164.934C179.222 164.934 177.645 164.208 176.663 162.756C175.695 161.304 175.211 159.302 175.211 156.75ZM183.879 156.75C183.879 155.269 183.717 154.132 183.395 153.34C183.072 152.533 182.405 152.13 181.393 152.13C180.381 152.13 179.713 152.533 179.391 153.34C179.068 154.132 178.907 155.269 178.907 156.75C178.907 157.747 178.965 158.576 179.083 159.236C179.2 159.881 179.435 160.409 179.787 160.82C180.153 161.216 180.689 161.414 181.393 161.414C182.097 161.414 182.625 161.216 182.977 160.82C183.343 160.409 183.585 159.881 183.703 159.236C183.82 158.576 183.879 157.747 183.879 156.75ZM189.562 156.75C189.562 154.227 190.046 152.24 191.014 150.788C191.997 149.336 193.574 148.61 195.744 148.61C197.915 148.61 199.484 149.336 200.452 150.788C201.435 152.24 201.926 154.227 201.926 156.75C201.926 159.302 201.435 161.304 200.452 162.756C199.484 164.208 197.915 164.934 195.744 164.934C193.574 164.934 191.997 164.208 191.014 162.756C190.046 161.304 189.562 159.302 189.562 156.75ZM198.23 156.75C198.23 155.269 198.069 154.132 197.746 153.34C197.424 152.533 196.756 152.13 195.744 152.13C194.732 152.13 194.065 152.533 193.742 153.34C193.42 154.132 193.258 155.269 193.258 156.75C193.258 157.747 193.317 158.576 193.434 159.236C193.552 159.881 193.786 160.409 194.138 160.82C194.505 161.216 195.04 161.414 195.744 161.414C196.448 161.414 196.976 161.216 197.328 160.82C197.695 160.409 197.937 159.881 198.054 159.236C198.172 158.576 198.23 157.747 198.23 156.75Z" fill="#0D1111"/>
<path d="M137.616 100.556L133.59 116H129.036L126.572 105.836L124.02 116H119.466L115.55 100.556H119.576L121.798 111.798L124.548 100.556H128.684L131.324 111.798L133.568 100.556H137.616ZM151.075 109.664C151.075 110.016 151.053 110.383 151.009 110.764H142.495C142.553 111.527 142.795 112.113 143.221 112.524C143.661 112.92 144.196 113.118 144.827 113.118C145.765 113.118 146.418 112.722 146.785 111.93H150.789C150.583 112.737 150.209 113.463 149.667 114.108C149.139 114.753 148.471 115.259 147.665 115.626C146.858 115.993 145.956 116.176 144.959 116.176C143.756 116.176 142.685 115.919 141.747 115.406C140.808 114.893 140.075 114.159 139.547 113.206C139.019 112.253 138.755 111.138 138.755 109.862C138.755 108.586 139.011 107.471 139.525 106.518C140.053 105.565 140.786 104.831 141.725 104.318C142.663 103.805 143.741 103.548 144.959 103.548C146.147 103.548 147.203 103.797 148.127 104.296C149.051 104.795 149.769 105.506 150.283 106.43C150.811 107.354 151.075 108.432 151.075 109.664ZM147.225 108.674C147.225 108.029 147.005 107.515 146.565 107.134C146.125 106.753 145.575 106.562 144.915 106.562C144.284 106.562 143.749 106.745 143.309 107.112C142.883 107.479 142.619 107.999 142.517 108.674H147.225ZM156.821 105.462C157.173 104.89 157.679 104.428 158.339 104.076C158.999 103.724 159.755 103.548 160.605 103.548C161.617 103.548 162.534 103.805 163.355 104.318C164.177 104.831 164.822 105.565 165.291 106.518C165.775 107.471 166.017 108.579 166.017 109.84C166.017 111.101 165.775 112.216 165.291 113.184C164.822 114.137 164.177 114.878 163.355 115.406C162.534 115.919 161.617 116.176 160.605 116.176C159.74 116.176 158.985 116.007 158.339 115.67C157.694 115.318 157.188 114.856 156.821 114.284V116H153.059V99.72H156.821V105.462ZM162.189 109.84C162.189 108.901 161.925 108.168 161.397 107.64C160.884 107.097 160.246 106.826 159.483 106.826C158.735 106.826 158.097 107.097 157.569 107.64C157.056 108.183 156.799 108.923 156.799 109.862C156.799 110.801 157.056 111.541 157.569 112.084C158.097 112.627 158.735 112.898 159.483 112.898C160.231 112.898 160.869 112.627 161.397 112.084C161.925 111.527 162.189 110.779 162.189 109.84ZM178.439 100.556C180.067 100.556 181.49 100.879 182.707 101.524C183.924 102.169 184.863 103.079 185.523 104.252C186.198 105.411 186.535 106.753 186.535 108.278C186.535 109.789 186.198 111.131 185.523 112.304C184.863 113.477 183.917 114.387 182.685 115.032C181.468 115.677 180.052 116 178.439 116H172.653V100.556H178.439ZM178.197 112.744C179.62 112.744 180.727 112.355 181.519 111.578C182.311 110.801 182.707 109.701 182.707 108.278C182.707 106.855 182.311 105.748 181.519 104.956C180.727 104.164 179.62 103.768 178.197 103.768H176.415V112.744H178.197ZM200.209 109.664C200.209 110.016 200.187 110.383 200.143 110.764H191.629C191.688 111.527 191.93 112.113 192.355 112.524C192.795 112.92 193.331 113.118 193.961 113.118C194.9 113.118 195.553 112.722 195.919 111.93H199.923C199.718 112.737 199.344 113.463 198.801 114.108C198.273 114.753 197.606 115.259 196.799 115.626C195.993 115.993 195.091 116.176 194.093 116.176C192.891 116.176 191.82 115.919 190.881 115.406C189.943 114.893 189.209 114.159 188.681 113.206C188.153 112.253 187.889 111.138 187.889 109.862C187.889 108.586 188.146 107.471 188.659 106.518C189.187 105.565 189.921 104.831 190.859 104.318C191.798 103.805 192.876 103.548 194.093 103.548C195.281 103.548 196.337 103.797 197.261 104.296C198.185 104.795 198.904 105.506 199.417 106.43C199.945 107.354 200.209 108.432 200.209 109.664ZM196.359 108.674C196.359 108.029 196.139 107.515 195.699 107.134C195.259 106.753 194.709 106.562 194.049 106.562C193.419 106.562 192.883 106.745 192.443 107.112C192.018 107.479 191.754 107.999 191.651 108.674H196.359ZM207.188 116.176C206.117 116.176 205.164 115.993 204.328 115.626C203.492 115.259 202.832 114.761 202.348 114.13C201.864 113.485 201.593 112.766 201.534 111.974H205.252C205.296 112.399 205.494 112.744 205.846 113.008C206.198 113.272 206.631 113.404 207.144 113.404C207.613 113.404 207.973 113.316 208.222 113.14C208.486 112.949 208.618 112.707 208.618 112.414C208.618 112.062 208.435 111.805 208.068 111.644C207.701 111.468 207.107 111.277 206.286 111.072C205.406 110.867 204.673 110.654 204.086 110.434C203.499 110.199 202.993 109.84 202.568 109.356C202.143 108.857 201.93 108.19 201.93 107.354C201.93 106.65 202.121 106.012 202.502 105.44C202.898 104.853 203.47 104.391 204.218 104.054C204.981 103.717 205.883 103.548 206.924 103.548C208.464 103.548 209.674 103.929 210.554 104.692C211.449 105.455 211.962 106.467 212.094 107.728H208.618C208.559 107.303 208.369 106.965 208.046 106.716C207.738 106.467 207.327 106.342 206.814 106.342C206.374 106.342 206.037 106.43 205.802 106.606C205.567 106.767 205.45 106.995 205.45 107.288C205.45 107.64 205.633 107.904 206 108.08C206.381 108.256 206.968 108.432 207.76 108.608C208.669 108.843 209.41 109.077 209.982 109.312C210.554 109.532 211.053 109.899 211.478 110.412C211.918 110.911 212.145 111.585 212.16 112.436C212.16 113.155 211.955 113.8 211.544 114.372C211.148 114.929 210.569 115.369 209.806 115.692C209.058 116.015 208.185 116.176 207.188 116.176ZM216.354 102.448C215.694 102.448 215.151 102.257 214.726 101.876C214.315 101.48 214.11 100.996 214.11 100.424C214.11 99.8373 214.315 99.3533 214.726 98.972C215.151 98.576 215.694 98.378 216.354 98.378C216.999 98.378 217.527 98.576 217.938 98.972C218.363 99.3533 218.576 99.8373 218.576 100.424C218.576 100.996 218.363 101.48 217.938 101.876C217.527 102.257 216.999 102.448 216.354 102.448ZM218.224 103.724V116H214.462V103.724H218.224ZM225.614 103.548C226.479 103.548 227.235 103.724 227.88 104.076C228.54 104.428 229.046 104.89 229.398 105.462V103.724H233.16V115.978C233.16 117.107 232.933 118.127 232.478 119.036C232.038 119.96 231.356 120.693 230.432 121.236C229.523 121.779 228.386 122.05 227.022 122.05C225.203 122.05 223.729 121.617 222.6 120.752C221.471 119.901 220.825 118.743 220.664 117.276H224.382C224.499 117.745 224.778 118.112 225.218 118.376C225.658 118.655 226.201 118.794 226.846 118.794C227.623 118.794 228.239 118.567 228.694 118.112C229.163 117.672 229.398 116.961 229.398 115.978V114.24C229.031 114.812 228.525 115.281 227.88 115.648C227.235 116 226.479 116.176 225.614 116.176C224.602 116.176 223.685 115.919 222.864 115.406C222.043 114.878 221.39 114.137 220.906 113.184C220.437 112.216 220.202 111.101 220.202 109.84C220.202 108.579 220.437 107.471 220.906 106.518C221.39 105.565 222.043 104.831 222.864 104.318C223.685 103.805 224.602 103.548 225.614 103.548ZM229.398 109.862C229.398 108.923 229.134 108.183 228.606 107.64C228.093 107.097 227.462 106.826 226.714 106.826C225.966 106.826 225.328 107.097 224.8 107.64C224.287 108.168 224.03 108.901 224.03 109.84C224.03 110.779 224.287 111.527 224.8 112.084C225.328 112.627 225.966 112.898 226.714 112.898C227.462 112.898 228.093 112.627 228.606 112.084C229.134 111.541 229.398 110.801 229.398 109.862ZM243.362 103.592C244.799 103.592 245.943 104.061 246.794 105C247.659 105.924 248.092 107.2 248.092 108.828V116H244.352V109.334C244.352 108.513 244.139 107.875 243.714 107.42C243.288 106.965 242.716 106.738 241.998 106.738C241.279 106.738 240.707 106.965 240.282 107.42C239.856 107.875 239.644 108.513 239.644 109.334V116H235.882V103.724H239.644V105.352C240.025 104.809 240.538 104.384 241.184 104.076C241.829 103.753 242.555 103.592 243.362 103.592Z" fill="#0D1111"/>
<defs>
<filter id="filter0_d_5_119" x="0" y="0" width="505" height="375" filterUnits="userSpaceOnUse" color-interpolation-filters="sRGB">
<feFlood flood-opacity="0" result="BackgroundImageFix"/>
<feColorMatrix in="SourceAlpha" type="matrix" values="0 0 0 0 0 0 0 0 0 0 0 0 0 0 0 0 0 0 127 0" result="hardAlpha"/>
<feOffset dy="16"/>
<feGaussianBlur stdDeviation="45"/>
<feColorMatrix type="matrix" values="0 0 0 0 0 0 0 0 0 0 0 0 0 0 0 0 0 0 0.05 0"/>
<feBlend mode="normal" in2="BackgroundImageFix" result="effect1_dropShadow_5_119"/>
<feBlend mode="normal" in="SourceGraphic" in2="effect1_dropShadow_5_119" result="shape"/>
</filter>
</defs>
</svg>
